<svg width="7745" height="5744" viewBox="0 0 7745 5744" fill="none" xmlns="http://www.w3.org/2000/svg">
<rect width="7745" height="5744"/>
<path d="M1297 927.5L1729 1117.08V1709.5L1297 1519.92V927.5Z" fill="#D9D9D9"/>
<path d="M2161 927.5L1729 1117.08V1709.5L2161 1519.92V927.5Z" fill="#0053CF"/>
<path d="M1729 739L1297 927.853L1729 1117.5L2161 927.853L1729 739Z" fill="#0056D8"/>
<path d="M865 1116.5L1297 1306.08V1898.5L865 1708.92V1116.5Z" fill="#D9D9D9"/>
<path d="M1729 1116.5L1297 1306.08V1898.5L1729 1708.92V1116.5Z" fill="#0045AD"/>
<path d="M1297 928L865 1116.85L1297 1306.5L1729 1116.85L1297 928Z" fill="#1A75FF"/>
<path d="M433 1305.5L865 1495.08V2087.5L433 1897.92V1305.5Z" fill="#D9D9D9"/>
<path d="M1297 1305.5L865 1495.08V2087.5L1297 1897.92V1305.5Z" fill="#004EC2"/>
<path d="M865 1117L433 1305.85L865 1495.5L1297 1305.85L865 1117Z" fill="#0066FF"/>
<path d="M3025 549.5L2593 739.076V1331.5L3025 1141.92V549.5Z" fill="#0045AD"/>
<path d="M2593 361L2161 549.853L2593 739.5L3025 549.853L2593 361Z" fill="#1A75FF"/>
<path d="M3451 362.5L3019 552.076V1144.5L3451 954.924V362.5Z" fill="#0045AD"/>
<path d="M2593 738.5L2161 928.076V1520.5L2593 1330.92V738.5Z" fill="#004EC2"/>
<path d="M2161 550L1729 738.853L2161 928.5L2593 738.853L2161 550Z" fill="#0066FF"/>
<path d="M865 1495L433 1684.58V2277L865 2087.42V1495Z" fill="#0059DE"/>
<path d="M433 1901L1 2089.85L433 2279.5L865 2089.85L433 1901Z" fill="#3C8AFF"/>
<path d="M1 1495L433 1684.58V2277L1 2087.42V1495Z" fill="#0066FF"/>
<path d="M433 1306.5L1 1495.35L433 1685L865 1495.35L433 1306.5Z" fill="#2F82FF"/>
<path d="M1297 1683.5L865 1873.08V2465.5L1297 2275.92V1683.5Z" fill="#0066FF"/>
<path d="M865 1495L433 1683.85L865 1873.5L1297 1683.85L865 1495Z" fill="#5196FF"/>
<path d="M864 2086L432 2275.58V2868L864 2678.42V2086Z" fill="#0154D1"/>
<path d="M433 1683.5L865 1873.08V2465.5L433 2275.92V1683.5Z" fill="#005FEE"/>
<path d="M1729 1871.5L1297 2061.08V2653.5L1729 2463.92V1871.5Z" fill="#005DE9"/>
<path d="M1297 1683L865 1871.85L1297 2061.5L1729 1871.85L1297 1683Z" fill="#3C8AFF"/>
<path d="M3019 551.5L3451 741.076V1333.5L3019 1143.92V551.5Z" fill="#0066FF"/>
<path d="M3883 551.5L3451 741.076V1333.5L3883 1143.92V551.5Z" fill="#005DE9"/>
<path d="M3451 363L3019 551.853L3451 741.5L3883 551.853L3451 363Z" fill="#3C8AFF"/>
<path d="M3451 740.5L3883 930.076V1522.5L3451 1332.92V740.5Z" fill="#0066FF"/>
<path d="M4315 740.5L3883 930.076V1522.5L4315 1332.92V740.5Z" fill="#005DE9"/>
<path d="M3883 552L3451 740.853L3883 930.5L4315 740.853L3883 552Z" fill="#3C8AFF"/>
<path d="M3883 928.5L4315 1118.08V1710.5L3883 1520.92V928.5Z" fill="#0066FF"/>
<path d="M4747 928.5L4315 1118.08V1710.5L4747 1520.92V928.5Z" fill="#005DE9"/>
<path d="M4315 740L3883 928.853L4315 1118.5L4747 928.853L4315 740Z" fill="#3C8AFF"/>
<path d="M6442 2263.5L6874 2453.08V3045.5L6442 2855.92V2263.5Z" fill="#0066FF"/>
<path d="M2777 2790L2886.5 2838V2907L2777 2859V2790Z" fill="#0066FF"/>
<path d="M7306 2263.5L6874 2453.08V3045.5L7306 2855.92V2263.5Z" fill="#005DE9"/>
<path d="M6874 2075L6442 2263.85L6874 2453.5L7306 2263.85L6874 2075Z" fill="#3C8AFF"/>
<path d="M5170 1710.5L5602 1900.08V2492.5L5170 2302.92V1710.5Z" fill="#0066FF"/>
<path d="M5602 1522L5170 1710.85L5602 1900.5L6034 1710.85L5602 1522Z" fill="#3C8AFF"/>
<path d="M5595 1896.5L6027 2086.08V2678.5L5595 2488.92V1896.5Z" fill="#0066FF"/>
<path d="M6027 1708L5595 1896.85L6027 2086.5L6459 1896.85L6027 1708Z" fill="#3C8AFF"/>
<path d="M6442 1886L6010 2074.85L6442 2264.5L6874 2074.85L6442 1886Z" fill="#3C8AFF"/>
<path fill-rule="evenodd" clip-rule="evenodd" d="M7306 2642.08L6874 2452.5V3044.92L7306 3234.5L7738 3044.92V2452.5L7306 2642.08Z" fill="#005DE9"/>
<path d="M7306 2264L6874 2452.85L7306 2642.5L7738 2452.85L7306 2264Z" fill="#3C8AFF"/>
<path d="M3856 3017L3424 3205.85L3856 3395.5L4288 3205.85L3856 3017Z" fill="#217AFF"/>
<path d="M3883 1317.5L4315 1507.08V2099.5L3883 1909.92V1317.5Z" fill="#0066FF"/>
<path d="M4747 1317.5L4315 1507.08V2099.5L4747 1909.92V1317.5Z" fill="#005DE9"/>
<path d="M4315 1129L3883 1317.85L4315 1507.5L4747 1317.85L4315 1129Z" fill="#3C8AFF"/>
<path d="M2593 1493.5L3025 1683.08V2275.5L2593 2085.92V1493.5Z" fill="#0066FF"/>
<path d="M3457 1493.5L3025 1683.08V2275.5L3457 2085.92V1493.5Z" fill="#005DE9"/>
<path d="M2593 1871.5L3025 2061.08V2653.5L2593 2463.92V1871.5Z" fill="#0066FF"/>
<path d="M3457 1871L3025 2060.58V2653L3457 2463.42V1871Z" fill="#084DB5"/>
<path d="M3025 1683L2593 1871.85L3025 2061.5L3457 1871.85L3025 1683Z" fill="#1170FF"/>
<path d="M3883 1684L3451 1873.58V2466L3883 2276.42V1684Z" fill="#084DB5"/>
<path d="M3451 1496L3019 1684.85L3451 1874.5L3883 1684.85L3451 1496Z" fill="#0045AD"/>
<path d="M2161 2059.5L2593 2249.08V2841.5L2161 2651.92V2059.5Z" fill="#0066FF"/>
<path d="M3025 2059.5L2593 2249.08V2841.5L3025 2651.92V2059.5Z" fill="#0355D0"/>
<path d="M2777 2792L2716 2818.92L2777 2848.5L2837 2820L2777 2792Z" fill="black"/>
<path d="M2901.5 1658L2750.5 1724L2867.5 1780L3017.5 1709.5L2901.5 1658Z" fill="#755F25"/>
<path d="M2917 2735L2856 2761.92L2917 2791.5L2977 2763L2917 2735Z" fill="black"/>
<path d="M3026.5 2375.58L2965.5 2404.15V2880.58L3026.5 2851V2375.58Z" fill="#8C3B00"/>
<path d="M3027 2781.5L2966 2810.08L2965.5 2880.5L3026.5 2850.92L3027 2781.5Z" fill="black"/>
<path d="M2966 2348L2905 2374.92L2966 2404.5L3026 2376L2966 2348Z" fill="#8C3B00"/>
<path d="M2905 2375L2966 2403.58V2880L2905 2850.42V2375Z" fill="#B34B00"/>
<path d="M2856 2762L2966 2810V2880L2856 2831V2762Z" fill="black"/>
<path d="M2856 2815L2966 2863V2880.5L2856 2831.5V2815Z" fill="white"/>
<path d="M3087.5 1927.58L3026.5 1956.15V2350.58L3087.5 2321V1927.58Z" fill="#898989"/>
<path d="M3088 1928L3027 1956.58V2238.08L3088 2208.5V1928Z" fill="#0055D5"/>
<path d="M2966 1913L3027 1941.58V2336L2966 2306.42V1913Z" fill="#898989"/>
<path d="M3027 1900L2966 1926.92L3027 1956.5L3087 1928L3027 1900Z" fill="#0060F1"/>
<path d="M2966 1913L3027 1941.58V2223.08L2966 2193.5V1913Z" fill="#0066FF"/>
<path d="M2886.5 2432.58L2825.5 2461.15V2937.58L2886.5 2908V2432.58Z" fill="#8C3B00"/>
<path d="M2887 2838.5L2826 2867.08L2825.5 2937.5L2886.5 2907.92L2887 2838.5Z" fill="black"/>
<path d="M2826 2405L2765 2431.92L2826 2461.5L2886 2433L2826 2405Z" fill="#8C3B00"/>
<path d="M2965.5 2347.5L2765 2431.92L2826 2461.5L3025.5 2375.5L2965.5 2347.5Z" fill="#CE5700"/>
<path d="M2765 2432L2826 2460.58V2937L2765 2907.42V2432Z" fill="#B34B00"/>
<path d="M2593 1871L2161 2059.85L2593 2249.5L3025 2059.85L2593 1871Z" fill="#217AFF"/>
<path d="M6442 2263.5L6010 2453.08V3045.5L6442 2855.92V2263.5Z" fill="#0355D0"/>
<path d="M6010 2075L5578 2263.85L6010 2453.5L6442 2263.85L6010 2075Z" fill="#217AFF"/>
<path d="M5146 2452.5L5578 2642.08V3234.5L5146 3044.92V2452.5Z" fill="#0066FF"/>
<path d="M6010 2452.5L5578 2642.08V3234.5L6010 3044.92V2452.5Z" fill="#0355D0"/>
<path d="M5578 2264L5146 2452.85L5578 2642.5L6010 2452.85L5578 2264Z" fill="#217AFF"/>
<path d="M5584 2638.5L5152 2828.08V3420.5L5584 3230.92V2638.5Z" fill="#0355D0"/>
<path d="M5152 2450L4720 2638.85L5152 2828.5L5584 2638.85L5152 2450Z" fill="#217AFF"/>
<path d="M4288 2827.5L4720 3017.08V3609.5L4288 3419.92V2827.5Z" fill="#0066FF"/>
<path d="M5152 2827.5L4720 3017.08V3609.5L5152 3419.92V2827.5Z" fill="#0355D0"/>
<path d="M4720 2639L4288 2827.85L4720 3017.5L5152 2827.85L4720 2639Z" fill="#217AFF"/>
<path d="M3856 3016.5L4288 3206.08V3798.5L3856 3608.92V3016.5Z" fill="#0066FF"/>
<path d="M4720 3016.5L4288 3206.08V3798.5L4720 3608.92V3016.5Z" fill="#0355D0"/>
<path d="M4288 2828L3856 3016.85L4288 3206.5L4720 3016.85L4288 2828Z" fill="#217AFF"/>
<path d="M3424 3205.5L3856 3395.08V3987.5L3424 3797.92V3205.5Z" fill="#0066FF"/>
<path d="M5155 4962L5587 5151.58V5744L5155 5554.42V4962Z" fill="#0066FF"/>
<path d="M4288 3205.5L3856 3395.08V3987.5L4288 3797.92V3205.5Z" fill="#0355D0"/>
<path d="M3615 3067L3916.5 3199.08V3335L3615 3202.92V3067Z" fill="white"/>
<path d="M3026.5 1895.5L2826 1986.08V2464L3026.5 2372.5V1895.5Z" fill="#0060F1"/>
<path d="M4348.5 3009.5L3916.5 3199.08V3335L4348.5 3145.42V3009.5Z" fill="#E0E0E0"/>
<path d="M4072.5 3200L3941 3257.5V3282.92L4072.5 3225.42V3200Z" fill="#C2C2C2"/>
<path d="M4047 2878L3615 3066.85L3916.5 3199.5L4348.5 3009.85L4047 2878Z" fill="#E9E9E9"/>
<path d="M3640 2716.5L3941.5 2848.58V3164L3640 3031.92V2716.5Z" fill="white"/>
<path d="M4315 2690L3940.5 2848.5L3942 3167.5L4305.5 3004.5L4315 2690Z" fill="#E0E0E0"/>
<path d="M2765 1957L2826 1985.58V2468.58L2765 2439V1957Z" fill="#005AE1"/>
<path d="M4260.5 2713.5L3988 2829.5L3989.5 3148.5L4251 3028L4260.5 2713.5Z" fill="black"/>
<path d="M4115.5 2842L3996 2894V2921L4113 2866L4115.5 2842Z" fill="#B9FF82"/>
<path d="M4176 2866.5L3996 2939V2966L4173.5 2890.5L4176 2866.5Z" fill="#B9FF82"/>
<path d="M4115.5 2940L3996 2992V3019L4113 2964L4115.5 2940Z" fill="#B9FF82"/>
<path d="M4014.5 2558L3640 2715.85L3941.5 2848.5L4316 2689.85L4014.5 2558Z" fill="#E9E9E9"/>
<path d="M4462 2678L4763.5 2810.08V2946L4462 2813.92V2678Z" fill="white"/>
<path d="M5195.5 2620.5L4763.5 2810.08V2946L5195.5 2756.42V2620.5Z" fill="#E0E0E0"/>
<path d="M4894 2489L4462 2677.85L4763.5 2810.5L5195.5 2620.85L4894 2489Z" fill="#E9E9E9"/>
<path d="M4487 2327.5L4788.5 2459.58V2775L4487 2642.92V2327.5Z" fill="white"/>
<path d="M5162 2301L4787.5 2459.5L4789 2778.5L5152.5 2615.5L5162 2301Z" fill="#E0E0E0"/>
<path d="M4861.5 2169L4487 2326.85L4788.5 2459.5L5163 2300.85L4861.5 2169Z" fill="#E9E9E9"/>
<path d="M4610.5 805L4309 937.076V1073L4610.5 940.924V805Z" fill="white"/>
<path d="M3877 747.5L4309 937.076V1073L3877 883.424V747.5Z" fill="#E0E0E0"/>
<path d="M4153 938L4284.5 995.5V1020.92L4153 963.423V938Z" fill="#C2C2C2"/>
<path d="M2716 2819L2826 2867V2937L2716 2888V2819Z" fill="black"/>
<path d="M2716 2872L2826 2920V2937.5L2716 2888.5V2872Z" fill="white"/>
<path d="M2886.5 2892L2826 2920.5V2938L2886.5 2908.5V2892Z" fill="white"/>
<path d="M3026.5 2835L2966 2863.5V2881L3026.5 2851.5V2835Z" fill="white"/>
<path d="M4178.5 616L4610.5 804.853L4309 937.5L3877 747.853L4178.5 616Z" fill="#E9E9E9"/>
<path d="M4585.5 454.5L4284 586.576V902L4585.5 769.924V454.5Z" fill="white"/>
<path d="M3910.5 428L4285 586.5L4283.5 905.5L3920 742.5L3910.5 428Z" fill="#E0E0E0"/>
<path d="M3965 451.5L4237.5 567.5L4236 886.5L3974.5 766L3965 451.5Z" fill="black"/>
<path d="M4110 580L4229.5 632V659L4112.5 604L4110 580Z" fill="#B9FF82"/>
<path d="M4049.5 604.5L4229.5 676.999V703.999L4052 628.5L4049.5 604.5Z" fill="#B9FF82"/>
<path d="M4110 678L4229.5 730V757L4112.5 702L4110 678Z" fill="#B9FF82"/>
<path d="M4211 296L4585.5 453.853L4284 586.5L3909.5 427.853L4211 296Z" fill="#E9E9E9"/>
<path d="M3903.5 509L3602 641.076V777L3903.5 644.924V509Z" fill="white"/>
<path d="M3170 451.5L3602 641.076V777L3170 587.424V451.5Z" fill="#E0E0E0"/>
<path d="M3446 642L3577.5 699.5V724.923L3446 667.423V642Z" fill="#C2C2C2"/>
<path d="M3471.5 320L3903.5 508.853L3602 641.5L3170 451.853L3471.5 320Z" fill="#E9E9E9"/>
<path d="M3878.5 158.5L3577 290.576V606L3878.5 473.924V158.5Z" fill="white"/>
<path d="M3203.5 132L3578 290.5L3576.5 609.5L3213 446.5L3203.5 132Z" fill="#E0E0E0"/>
<path d="M3258 155.5L3530.5 271.5L3529 590.5L3267.5 470L3258 155.5Z" fill="black"/>
<path d="M3403 284L3522.5 336V363L3405.5 308L3403 284Z" fill="#B9FF82"/>
<path d="M3342.5 308.5L3522.5 380.999V407.999L3345 332.5L3342.5 308.5Z" fill="#B9FF82"/>
<path d="M3403 382L3522.5 434V461L3405.5 406L3403 382Z" fill="#B9FF82"/>
<path d="M3504 0L3878.5 157.853L3577 290.5L3202.5 131.853L3504 0Z" fill="#E9E9E9"/>
<path d="M1578 740L1879.5 872.076V1008L1578 875.924V740Z" fill="white"/>
<path d="M2311.5 682.5L1879.5 872.076V1008L2311.5 818.424V682.5Z" fill="#E0E0E0"/>
<path d="M2010 551L1578 739.853L1879.5 872.5L2311.5 682.853L2010 551Z" fill="#E9E9E9"/>
<path d="M1603 389.5L1904.5 521.576V837L1603 704.924V389.5Z" fill="white"/>
<path d="M2278 363L1903.5 521.5L1905 840.5L2268.5 677.5L2278 363Z" fill="#E0E0E0"/>
<path d="M2223.5 386.5L1951 502.5L1952.5 821.5L2214 701L2223.5 386.5Z" fill="black"/>
<path d="M2078.5 515L1959 567V594L2076 539L2078.5 515Z" fill="#B9FF82"/>
<path d="M915 1037L1216.5 1169.08V1305L915 1172.92V1037Z" fill="#001357"/>
<path d="M1648.5 979.5L1216.5 1169.08V1305L1648.5 1115.42V979.5Z" fill="#001357"/>
<path d="M1977.5 231L1603 388.853L1904.5 521.5L2279 362.853L1977.5 231Z" fill="#E9E9E9"/>
<path d="M1372.5 1170L1241 1227.5V1252.92L1372.5 1195.42V1170Z" fill="white"/>
<path d="M1347 848L915 1036.85L1216.5 1169.5L1648.5 979.853L1347 848Z" fill="#00061C"/>
<path d="M915 874L1216.5 1006.08V1142L915 1009.92V874Z" fill="#001357"/>
<path d="M1648.5 816.5L1216.5 1006.08V1142L1648.5 952.424V816.5Z" fill="#001357"/>
<path d="M1372.5 1007L1241 1064.5V1089.92L1372.5 1032.42V1007Z" fill="white"/>
<path d="M1347 685L915 873.853L1216.5 1006.5L1648.5 816.853L1347 685Z" fill="#00061C"/>
<path d="M915 711L1216.5 843.076V979L915 846.924V711Z" fill="#001357"/>
<path d="M1648.5 653.5L1216.5 843.076V979L1648.5 789.424V653.5Z" fill="#001357"/>
<path d="M1372.5 844L1241 901.5V926.923L1372.5 869.423V844Z" fill="white"/>
<path d="M1347 522L915 710.853L1216.5 843.5L1648.5 653.853L1347 522Z" fill="#00061C"/>
<path d="M915 548L1216.5 680.076V816L915 683.924V548Z" fill="#001357"/>
<path d="M1648.5 490.5L1216.5 680.076V816L1648.5 626.424V490.5Z" fill="#001357"/>
<path d="M1372.5 681L1241 738.5V763.923L1372.5 706.423V681Z" fill="white"/>
<path d="M1347 359L915 547.853L1216.5 680.5L1648.5 490.853L1347 359Z" fill="#00061C"/>
<path d="M915 385L1216.5 517.076V653L915 520.924V385Z" fill="#001357"/>
<path d="M1648.5 327.5L1216.5 517.076V653L1648.5 463.424V327.5Z" fill="#001357"/>
<path d="M1372.5 518L1241 575.5V600.923L1372.5 543.423V518Z" fill="white"/>
<path d="M1347 196L915 384.853L1216.5 517.5L1648.5 327.853L1347 196Z" fill="#000516"/>
<path d="M2139 539.5L1959 611.999V638.999L2136.5 563.5L2139 539.5Z" fill="#B9FF82"/>
<path d="M2078.5 613L1959 665V692L2076 637L2078.5 613Z" fill="#B9FF82"/>
<path d="M5386 2283L5687.5 2415.08V2551L5386 2418.92V2283Z" fill="white"/>
<path d="M6119.5 2225.5L5687.5 2415.08V2551L6119.5 2361.42V2225.5Z" fill="#E0E0E0"/>
<path d="M5843.5 2416L5712 2473.5V2498.92L5843.5 2441.42V2416Z" fill="#C2C2C2"/>
<path d="M5818 2094L5386 2282.85L5687.5 2415.5L6119.5 2225.85L5818 2094Z" fill="#E9E9E9"/>
<path d="M5411 1932.5L5712.5 2064.58V2380L5411 2247.92V1932.5Z" fill="white"/>
<path d="M6086 1906L5711.5 2064.5L5713 2383.5L6076.5 2220.5L6086 1906Z" fill="#E0E0E0"/>
<path d="M6031.5 1929.5L5759 2045.5L5760.5 2364.5L6022 2244L6031.5 1929.5Z" fill="black"/>
<path d="M5886.5 2058L5767 2110V2137L5884 2082L5886.5 2058Z" fill="#B9FF82"/>
<path d="M5947 2082.5L5767 2155V2182L5944.5 2106.5L5947 2082.5Z" fill="#B9FF82"/>
<path d="M5886.5 2156L5767 2208V2235L5884 2180L5886.5 2156Z" fill="#B9FF82"/>
<path d="M5785.5 1774L5411 1931.85L5712.5 2064.5L6087 1905.85L5785.5 1774Z" fill="#E9E9E9"/>
<path d="M1297 2059.5L1729 2249.08V2841.5L1297 2651.92V2059.5Z" fill="#0066FF"/>
<path d="M2161 2059.5L1729 2249.08V2841.5L2161 2651.92V2059.5Z" fill="#005DE9"/>
<path d="M1729 3629L1297 3818.58V4411L1729 4221.42V3629Z" fill="#005DE9"/>
<path d="M0 2086L432 2275.58V2868L0 2678.42V2086Z" fill="#0066FF"/>
<path d="M864 3260L432 3449.58V4042L864 3852.42V3260Z" fill="#0154D1"/>
<path d="M0 3260L432 3449.58V4042L0 3852.42V3260Z" fill="#1371FF"/>
<path d="M864 2672L432 2861.58V3454L864 3264.42V2672Z" fill="#0059DF"/>
<path d="M0 2672L432 2861.58V3454L0 3264.42V2672Z" fill="#0066FF"/>
<path d="M7745 3032L7313 3221.58V3814L7745 3624.42V3032Z" fill="#0154D1"/>
<path d="M6881 3032L7313 3221.58V3814L6881 3624.42V3032Z" fill="#0066FF"/>
<path d="M7745 4206L7313 4395.58V4988L7745 4798.42V4206Z" fill="#0154D1"/>
<path d="M6881 4206L7313 4395.58V4988L6881 4798.42V4206Z" fill="#0066FF"/>
<path d="M7745 3618L7313 3807.58V4400L7745 4210.42V3618Z" fill="#0059DF"/>
<path d="M6881 3618L7313 3807.58V4400L6881 4210.42V3618Z" fill="#0066FF"/>
<path d="M1729 1871L1297 2059.85L1729 2249.5L2161 2059.85L1729 1871Z" fill="#3C8AFF"/>
<path d="M432 3448.5L864 3638.08V4230.5L432 4040.92V3448.5Z" fill="#015FED"/>
<path d="M1296 3448.5L864 3638.08V4230.5L1296 4040.92V3448.5Z" fill="#005DE9"/>
<path d="M864 3260L432 3448.85L864 3638.5L1296 3448.85L864 3260Z" fill="#3C8AFF"/>
<path d="M865 3637.5L1297 3827.08V4419.5L865 4229.92V3637.5Z" fill="#1774FF"/>
<path d="M2095.5 3178.85L1794 3310.93V4607.85L2095.5 4475.78V3178.85Z" fill="#0014C5"/>
<path d="M1297 3449L865 3637.85L1297 3827.5L1729 3637.85L1297 3449Z" fill="#237BFF"/>
<path d="M1622.5 1751L1321 1883.08V2019L1622.5 1886.92V1751Z" fill="white"/>
<path d="M889 1693.5L1321 1883.08V2019L889 1829.42V1693.5Z" fill="#E0E0E0"/>
<path d="M1190.5 1562L1622.5 1750.85L1321 1883.5L889 1693.85L1190.5 1562Z" fill="#E9E9E9"/>
<path d="M1597.5 1400.5L1296 1532.58V1848L1597.5 1715.92V1400.5Z" fill="white"/>
<path d="M922.5 1374L1297 1532.5L1295.5 1851.5L932 1688.5L922.5 1374Z" fill="#E0E0E0"/>
<path d="M1223 1242L1597.5 1399.85L1296 1532.5L921.5 1373.85L1223 1242Z" fill="#E9E9E9"/>
<path d="M2966 1867.5L2765 1955.92L2826 1985.5L3026 1895.5L2966 1867.5Z" fill="#0060F1"/>
<path d="M3019 1709.08L2867.5 1780.58V1982L3019 1909.5V1709.08Z" fill="#755F25"/>
<path d="M2750 1723.85L2868 1781V1982.15L2750 1924V1723.85Z" fill="#898989"/>
<path d="M2750 1723.85L2868 1781V1982.15C2868 1982.15 2862 1840 2816 1865.5C2758.91 1897.15 2750 1723.85 2750 1723.85Z" fill="#755F25"/>
<path d="M1577.5 3494L1276 3626.08V3762L1577.5 3629.92V3494Z" fill="white"/>
<path d="M844 3436.5L1276 3626.08V3762L844 3572.42V3436.5Z" fill="#E0E0E0"/>
<path d="M1120 3627L1251.5 3684.5V3709.92L1120 3652.42V3627Z" fill="#C2C2C2"/>
<path d="M1145.5 3305L1577.5 3493.85L1276 3626.5L844 3436.85L1145.5 3305Z" fill="#E9E9E9"/>
<path d="M1552.5 3143.5L1251 3275.58V3591L1552.5 3458.92V3143.5Z" fill="white"/>
<path d="M877.5 3117L1252 3275.5L1250.5 3594.5L887 3431.5L877.5 3117Z" fill="#E0E0E0"/>
<path d="M932 3140.5L1204.5 3256.5L1203 3575.5L941.5 3455L932 3140.5Z" fill="black"/>
<path d="M1077 3269L1196.5 3321V3348L1079.5 3293L1077 3269Z" fill="#B9FF82"/>
<path d="M1016.5 3293.5L1196.5 3366V3393L1019 3317.5L1016.5 3293.5Z" fill="#B9FF82"/>
<path d="M1077 3367L1196.5 3419V3446L1079.5 3391L1077 3367Z" fill="#B9FF82"/>
<path d="M1178 2985L1552.5 3142.85L1251 3275.5L876.5 3116.85L1178 2985Z" fill="#E9E9E9"/>
<path d="M2836.5 2009.58L2775.5 2038.15V2432.58L2836.5 2403V2009.58Z" fill="#898989"/>
<path d="M2837 2010L2776 2038.58V2320.08L2837 2290.5V2010Z" fill="#0055D5"/>
<path d="M2715 2009L2776 2037.58V2432L2715 2402.42V2009Z" fill="#898989"/>
<path d="M2776 1982L2715 2008.92L2776 2038.5L2836 2010L2776 1982Z" fill="#0060F1"/>
<path d="M2715 2009L2776 2037.58V2319.08L2715 2289.5V2009Z" fill="#0066FF"/>
<path d="M6080 3299L6019 3325.92L6080 3355.5L6140 3327L6080 3299Z" fill="black"/>
<path d="M6204.5 2165L6053.5 2231L6170.5 2287L6320.5 2216.5L6204.5 2165Z" fill="#755F25"/>
<path d="M6220 3242L6159 3268.92L6220 3298.5L6280 3270L6220 3242Z" fill="black"/>
<path d="M6329.5 2882.58L6268.5 2911.15V3387.58L6329.5 3358V2882.58Z" fill="#8C3B00"/>
<path d="M6330 3288.5L6269 3317.08L6268.5 3387.5L6329.5 3357.92L6330 3288.5Z" fill="black"/>
<path d="M6208 2882L6269 2910.58V3387L6208 3357.42V2882Z" fill="#B34B00"/>
<path d="M6159 3269L6269 3317V3387L6159 3338V3269Z" fill="black"/>
<path d="M6159 3322L6269 3370V3387.5L6159 3338.5V3322Z" fill="white"/>
<path d="M6390.5 2434.58L6329.5 2463.15V2857.58L6390.5 2828V2434.58Z" fill="#898989"/>
<path d="M6391 2435L6330 2463.58V2745.08L6391 2715.5V2435Z" fill="#00C036"/>
<path d="M6330 2407L6269 2433.92L6330 2463.5L6390 2435L6330 2407Z" fill="#01A52F"/>
<path d="M6189.5 2939.58L6128.5 2968.15V3444.58L6189.5 3415V2939.58Z" fill="#8C3B00"/>
<path d="M6068 2939L6129 2967.58V3444L6068 3414.42V2939Z" fill="#B34B00"/>
<path d="M6329.5 2402.5L6129 2493.08V2971L6329.5 2879.5V2402.5Z" fill="#00D33B"/>
<path d="M6068 2464L6129 2492.58V2975.58L6068 2946V2464Z" fill="#00D33B"/>
<path d="M6019 3326L6129 3374V3444L6019 3395V3326Z" fill="black"/>
<path d="M6019 3379L6129 3427V3444.5L6019 3395.5V3379Z" fill="white"/>
<path d="M6189.5 3399L6129 3427.5V3445L6189.5 3415.5V3399Z" fill="white"/>
<path d="M6329.5 3342L6269 3370.5V3388L6329.5 3358.5V3342Z" fill="white"/>
<path d="M6269 2374.5L6068 2462.92L6129 2492.5L6329 2402.5L6269 2374.5Z" fill="#00A32E"/>
<path d="M6322 2216.08L6170.5 2287.58V2489L6322 2416.5V2216.08Z" fill="#755F25"/>
<path d="M6053 2230.85L6171 2288V2489.15L6053 2431V2230.85Z" fill="#898989"/>
<path d="M6053 2230.85L6171 2288V2489.15C6171 2489.15 6165 2347 6119 2372.5C6061.91 2404.15 6053 2230.85 6053 2230.85Z" fill="#755F25"/>
<path d="M6139.5 2516.58L6078.5 2545.15V2939.58L6139.5 2910V2516.58Z" fill="#898989"/>
<path d="M6140 2517L6079 2545.58V2827.08L6140 2797.5V2517Z" fill="#00C036"/>
<path d="M6018 2516L6079 2544.58V2939L6018 2909.42V2516Z" fill="#898989"/>
<path d="M6079 2489L6018 2515.92L6079 2545.5L6139 2517L6079 2489Z" fill="#01A52F"/>
<path d="M6018 2516L6079 2544.58V2826.08L6018 2796.5V2516Z" fill="#00B533"/>
<path d="M2158 1562L2097 1588.92L2158 1618.5L2218 1590L2158 1562Z" fill="black"/>
<path d="M2282.5 428L2131.5 494L2248.5 550L2398.5 479.5L2282.5 428Z" fill="#755F25"/>
<path d="M2298 1505L2237 1531.92L2298 1561.5L2358 1533L2298 1505Z" fill="black"/>
<path d="M2407.5 1145.58L2346.5 1174.15V1650.58L2407.5 1621V1145.58Z" fill="#8C3B00"/>
<path d="M2408 1551.5L2347 1580.08L2346.5 1650.5L2407.5 1620.92L2408 1551.5Z" fill="black"/>
<path d="M2286 1145L2347 1173.58V1650L2286 1620.42V1145Z" fill="#B34B00"/>
<path d="M2237 1532L2347 1580V1650L2237 1601V1532Z" fill="black"/>
<path d="M3287 1350L3348 1376.92L3287 1406.5L3227 1378L3287 1350Z" fill="black"/>
<path d="M3162.5 216L3313.5 282L3196.5 338L3046.5 267.5L3162.5 216Z" fill="#755F25"/>
<path d="M3147 1293L3208 1319.92L3147 1349.5L3087 1321L3147 1293Z" fill="black"/>
<path d="M3037.5 933.576L3098.5 962.151V1438.58L3037.5 1409V933.576Z" fill="#8C3B00"/>
<path d="M3037 1339.5L3098 1368.08L3098.5 1438.5L3037.5 1408.92L3037 1339.5Z" fill="black"/>
<path d="M3159 933L3098 961.576V1438L3159 1408.42V933Z" fill="#B34B00"/>
<path d="M3208 1320L3098 1368V1438L3208 1389V1320Z" fill="black"/>
<path d="M3208 1373L3098 1421V1438.5L3208 1389.5V1373Z" fill="white"/>
<path d="M2976.5 485.576L3037.5 514.151V908.576L2976.5 879V485.576Z" fill="#898989"/>
<path d="M2976 486L3037 514.576V796.076L2976 766.5V486Z" fill="#0055D5"/>
<path d="M3097 427L3298 515.424L3237 545L3037 455L3097 427Z" fill="#0060F1"/>
<path d="M3037 458L3098 484.924L3037 514.5L2977 486L3037 458Z" fill="#0060F1"/>
<path d="M3177.5 990.576L3238.5 1019.15V1495.58L3177.5 1466V990.576Z" fill="#8C3B00"/>
<path d="M3177 1396.5L3238 1425.08L3238.5 1495.5L3177.5 1465.92L3177 1396.5Z" fill="black"/>
<path d="M3299 990L3238 1018.58V1495L3299 1465.42V990Z" fill="#B34B00"/>
<path d="M3037.5 453.5L3238 544.076V1022L3037.5 930.5V453.5Z" fill="#0060F1"/>
<path d="M3299 515L3238 543.576V1026.58L3299 997V515Z" fill="#005AE1"/>
<path d="M3348 1377L3238 1425V1495L3348 1446V1377Z" fill="black"/>
<path d="M3348 1430L3238 1478V1495.5L3348 1446.5V1430Z" fill="white"/>
<path d="M3177.5 1450L3238 1478.5V1496L3177.5 1466.5V1450Z" fill="white"/>
<path d="M3037.5 1393L3098 1421.5V1439L3037.5 1409.5V1393Z" fill="white"/>
<path d="M3045 267.076L3196.5 338.576V540L3045 467.5V267.076Z" fill="#755F25"/>
<path d="M2347 641L2146 729.424L2207 759L2407 669L2347 641Z" fill="#0060F1"/>
<path d="M3314 281.848L3196 339.001V540.152L3314 482V281.848Z" fill="#898989"/>
<path d="M3314 281.848L3196 339.001V540.152C3196 540.152 3202 398 3248 423.5C3305.09 455.148 3314 281.848 3314 281.848Z" fill="#755F25"/>
<path d="M3227.5 567.576L3288.5 596.151V990.576L3227.5 961V567.576Z" fill="#898989"/>
<path d="M3227 568L3288 596.576V878.076L3227 848.5V568Z" fill="#0055D5"/>
<path d="M3349 567L3288 595.576V990L3349 960.424V567Z" fill="#898989"/>
<path d="M3349 567L3288 595.576V877.076L3349 847.5V567Z" fill="#0066FF"/>
<path d="M2237 1585L2347 1633V1650.5L2237 1601.5V1585Z" fill="white"/>
<path d="M2468.5 697.576L2407.5 726.151V1120.58L2468.5 1091V697.576Z" fill="#898989"/>
<path d="M2469 698L2408 726.576V1008.08L2469 978.5V698Z" fill="#0055D5"/>
<path d="M2408 670L2347 696.924L2408 726.5L2468 698L2408 670Z" fill="#0060F1"/>
<path d="M2267.5 1202.58L2206.5 1231.15V1707.58L2267.5 1678V1202.58Z" fill="#8C3B00"/>
<path d="M2268 1608.5L2207 1637.08L2206.5 1707.5L2267.5 1677.92L2268 1608.5Z" fill="black"/>
<path d="M2146 1202L2207 1230.58V1707L2146 1677.42V1202Z" fill="#B34B00"/>
<path d="M2407.5 665.5L2207 756.076V1234L2407.5 1142.5V665.5Z" fill="#0060F1"/>
<path d="M2146 727L2207 755.576V1238.58L2146 1209V727Z" fill="#005AE1"/>
<path d="M2097 1589L2207 1637V1707L2097 1658V1589Z" fill="black"/>
<path d="M2097 1642L2207 1690V1707.5L2097 1658.5V1642Z" fill="white"/>
<path d="M2267.5 1662L2207 1690.5V1708L2267.5 1678.5V1662Z" fill="white"/>
<path d="M2407.5 1605L2347 1633.5V1651L2407.5 1621.5V1605Z" fill="white"/>
<path d="M2400 479.076L2248.5 550.576V752L2400 679.5V479.076Z" fill="#755F25"/>
<path d="M2131 493.848L2249 551.001V752.152L2131 694V493.848Z" fill="#898989"/>
<path d="M2131 493.848L2249 551.001V752.152C2249 752.152 2243 610 2197 635.5C2139.91 667.148 2131 493.848 2131 493.848Z" fill="#755F25"/>
<path d="M2217.5 779.576L2156.5 808.151V1202.58L2217.5 1173V779.576Z" fill="#898989"/>
<path d="M2218 780L2157 808.576V1090.08L2218 1060.5V780Z" fill="#0055D5"/>
<path d="M2096 779L2157 807.576V1202L2096 1172.42V779Z" fill="#898989"/>
<path d="M3025 1305L2593 1493.85L3025 1683.5L3457 1493.85L3025 1305Z" fill="#3C8AFF"/>
<path d="M2096 779L2157 807.576V1089.08L2096 1059.5V779Z" fill="#0066FF"/>
<path d="M2157 752L2096 778.924L2157 808.5L2217 780L2157 752Z" fill="#0060F1"/>
<path d="M3289 540L3228 566.924L3289 596.5L3349 568L3289 540Z" fill="#0060F1"/>
<path d="M155 1340L456.5 1472.08V1608L155 1475.92V1340Z" fill="#001357"/>
<path d="M888.5 1282.5L456.5 1472.08V1608L888.5 1418.42V1282.5Z" fill="#001357"/>
<path d="M612.5 1473L481 1530.5V1555.92L612.5 1498.42V1473Z" fill="white"/>
<path d="M587 1151L155 1339.85L456.5 1472.5L888.5 1282.85L587 1151Z" fill="#00061C"/>
<path d="M155 1177L456.5 1309.08V1445L155 1312.92V1177Z" fill="#001357"/>
<path d="M888.5 1119.5L456.5 1309.08V1445L888.5 1255.42V1119.5Z" fill="#001357"/>
<path d="M612.5 1310L481 1367.5V1392.92L612.5 1335.42V1310Z" fill="white"/>
<path d="M587 988L155 1176.85L456.5 1309.5L888.5 1119.85L587 988Z" fill="#00061C"/>
<path d="M155 1014L456.5 1146.08V1282L155 1149.92V1014Z" fill="#001357"/>
<path d="M888.5 956.5L456.5 1146.08V1282L888.5 1092.42V956.5Z" fill="#001357"/>
<path d="M612.5 1147L481 1204.5V1229.92L612.5 1172.42V1147Z" fill="white"/>
<path d="M587 825L155 1013.85L456.5 1146.5L888.5 956.853L587 825Z" fill="#00061C"/>
<path d="M155 851L456.5 983.076V1119L155 986.924V851Z" fill="#001357"/>
<path d="M888.5 793.5L456.5 983.076V1119L888.5 929.424V793.5Z" fill="#001357"/>
<path d="M612.5 984L481 1041.5V1066.92L612.5 1009.42V984Z" fill="white"/>
<path d="M587 662L155 850.853L456.5 983.5L888.5 793.853L587 662Z" fill="#00061C"/>
<path d="M155 688L456.5 820.076V956L155 823.924V688Z" fill="#001357"/>
<path d="M888.5 630.5L456.5 820.076V956L888.5 766.424V630.5Z" fill="#001357"/>
<path d="M612.5 821L481 878.5V903.923L612.5 846.423V821Z" fill="white"/>
<path d="M587 499L155 687.853L456.5 820.5L888.5 630.853L587 499Z" fill="#000516"/>
<path d="M865 1871.5C1008.99 1934.69 1152.99 1997.88 1296.99 2061.07C1296.99 2159.8 1296.99 2258.54 1297 2357.28C1297 2456.02 1297 2554.76 1297 2653.49C1153 2590.3 1009 2527.11 865 2463.92C865 2365.18 865 2266.44 865 2167.7C865 2068.97 865 1970.23 865 1871.5Z" fill="#0066FF"/>
<path d="M1362 3124.78L1794 3314.35V4607.85L1362 4418.28V3124.78Z" fill="#000F97"/>
<path d="M1362 3273.28L1794 3462.85V4365.43L1362 4175.85V3273.28Z" fill="#4F58AD"/>
<path d="M1418.5 3473.8C1418.5 3441.94 1451.32 3420.64 1480.42 3433.62L1711.92 3536.87C1727.78 3543.94 1738 3559.69 1738 3577.05V4199.7C1738 4231.56 1705.18 4252.86 1676.08 4239.88L1444.58 4136.63C1428.72 4129.56 1418.5 4113.81 1418.5 4096.45V3473.8Z" fill="white"/>
<path d="M1365 4249.85L1797 4439.43V4562.5L1365 4372.92V4249.85Z" fill="#4F58AD"/>
<path d="M1451 4297.42L1664.5 4392L1664 4492.92L1450.5 4398.35L1451 4297.42Z" fill="#3D458D"/>
<path d="M1419 3946L1737.5 4084.43V4138.5L1419 4000.07V3946Z" fill="#4C57B6"/>
<path d="M1419 3946L1737.5 4084.43V4138.5L1419 4000.07V3946Z" fill="#4C57B6"/>
<path d="M1419 3946L1737.5 4084.43V4138.5L1419 4000.07V3946Z" fill="#4C57B6"/>
<path d="M1419 3770L1737.5 3908.43V3962.5L1419 3824.07V3770Z" fill="#4C57B6"/>
<path d="M1419 3770L1737.5 3908.43V3962.5L1419 3824.07V3770Z" fill="#4C57B6"/>
<path d="M1419 3770L1737.5 3908.43V3962.5L1419 3824.07V3770Z" fill="#4C57B6"/>
<path d="M1419 3591L1737.5 3729.43V3783.5L1419 3645.07V3591Z" fill="#4C57B6"/>
<path d="M1419 3591L1737.5 3729.43V3783.5L1419 3645.07V3591Z" fill="#4C57B6"/>
<path d="M1419 3591L1737.5 3729.43V3783.5L1419 3645.07V3591Z" fill="#4C57B6"/>
<path d="M1419 3539L1496.5 3570.5V3624.57L1419 3597.07V3539Z" fill="#4C57B6"/>
<path d="M1419 3539L1496.5 3570.5V3624.57L1419 3597.07V3539Z" fill="#4C57B6"/>
<path d="M1419 3539L1496.5 3570.5V3624.57L1419 3597.07V3539Z" fill="#298F3A"/>
<path d="M1419 3539L1496.5 3570.5V3624.57L1419 3597.07V3539Z" fill="#298F3A"/>
<path d="M1591 3790L1668.5 3821.5V3875.57L1591 3848.07V3790Z" fill="#4C57B6"/>
<path d="M1591 3790L1668.5 3821.5V3875.57L1591 3848.07V3790Z" fill="#4C57B6"/>
<path d="M1591 3790L1668.5 3821.5V3875.57L1591 3848.07V3790Z" fill="#298F3A"/>
<path d="M1591 3790L1668.5 3821.5V3875.57L1591 3848.07V3790Z" fill="#298F3A"/>
<path d="M1578 3582L1655.5 3613.5V3667.57L1578 3640.07V3582Z" fill="#4C57B6"/>
<path d="M1578 3582L1655.5 3613.5V3667.57L1578 3640.07V3582Z" fill="#4C57B6"/>
<path d="M1578 3582L1655.5 3613.5V3667.57L1578 3640.07V3582Z" fill="#298F3A"/>
<path d="M1578 3582L1655.5 3613.5V3667.57L1578 3640.07V3582Z" fill="#298F3A"/>
<path d="M1478 3548L1555.5 3579.5V3650L1478 3618.5V3548Z" fill="#4C57B6"/>
<path d="M1478 3548L1555.5 3579.5V3650L1478 3618.5V3548Z" fill="#4C57B6"/>
<path d="M1478 3548L1555.5 3579.5V3650L1478 3618.5V3548Z" fill="#21EC42"/>
<path d="M1478 3548L1555.5 3579.5V3650L1478 3618.5V3548Z" fill="#0CEF31"/>
<path d="M1633 3973L1710.5 4004.5V4075L1633 4043.5V3973Z" fill="#4C57B6"/>
<path d="M1633 3973L1710.5 4004.5V4075L1633 4043.5V3973Z" fill="#4C57B6"/>
<path d="M1633 3973L1710.5 4004.5V4075L1633 4043.5V3973Z" fill="#21EC42"/>
<path d="M1633 3973L1710.5 4004.5V4075L1633 4043.5V3973Z" fill="#0CEF31"/>
<path d="M1555 3594L1632.5 3630V3684.07L1555 3650.5V3594Z" fill="#4C57B6"/>
<path d="M1555 3594L1632.5 3630V3684.07L1555 3650.5V3594Z" fill="#4C57B6"/>
<path d="M1555 3594L1632.5 3630V3684.07L1555 3650.5V3594Z" fill="#298F3A"/>
<path d="M1555 3594L1632.5 3630V3684.07L1555 3650.5V3594Z" fill="#29708F"/>
<path d="M1419 3897L1496.5 3928.5V3982.57L1419 3955.07V3897Z" fill="#4C57B6"/>
<path d="M1419 3897L1496.5 3928.5V3982.57L1419 3955.07V3897Z" fill="#4C57B6"/>
<path d="M1419 3897L1496.5 3928.5V3982.57L1419 3955.07V3897Z" fill="#298F3A"/>
<path d="M1419 3897L1496.5 3928.5V3982.57L1419 3955.07V3897Z" fill="#298F3A"/>
<path d="M1478 3906L1555.5 3937.5V4008L1478 3976.5V3906Z" fill="#4C57B6"/>
<path d="M1478 3906L1555.5 3937.5V4008L1478 3976.5V3906Z" fill="#4C57B6"/>
<path d="M1478 3906L1555.5 3937.5V4008L1478 3976.5V3906Z" fill="#21EC42"/>
<path d="M1478 3906L1555.5 3937.5V4008L1478 3976.5V3906Z" fill="#0CEF31"/>
<path d="M1633 3795L1710.5 3826.5V3897L1633 3865.5V3795Z" fill="#4C57B6"/>
<path d="M1633 3795L1710.5 3826.5V3897L1633 3865.5V3795Z" fill="#4C57B6"/>
<path d="M1633 3795L1710.5 3826.5V3897L1633 3865.5V3795Z" fill="#21EC42"/>
<path d="M1633 3795L1710.5 3826.5V3897L1633 3865.5V3795Z" fill="#0CEF31"/>
<path d="M1630 3617L1707.5 3648.5V3719L1630 3687.5V3617Z" fill="#4C57B6"/>
<path d="M1630 3617L1707.5 3648.5V3719L1630 3687.5V3617Z" fill="#4C57B6"/>
<path d="M1630 3617L1707.5 3648.5V3719L1630 3687.5V3617Z" fill="#21EC42"/>
<path d="M1630 3617L1707.5 3648.5V3719L1630 3687.5V3617Z" fill="#0CEF31"/>
<path d="M1555 3952L1632.5 3988V4042.07L1555 4008.5V3952Z" fill="#4C57B6"/>
<path d="M1555 3952L1632.5 3988V4042.07L1555 4008.5V3952Z" fill="#4C57B6"/>
<path d="M1555 3952L1632.5 3988V4042.07L1555 4008.5V3952Z" fill="#298F3A"/>
<path d="M1555 3952L1632.5 3988V4042.07L1555 4008.5V3952Z" fill="#29708F"/>
<path d="M1660 3821L1737.5 3857V3911.07L1660 3877.5V3821Z" fill="#4C57B6"/>
<path d="M1660 3821L1737.5 3857V3911.07L1660 3877.5V3821Z" fill="#4C57B6"/>
<path d="M1660 3821L1737.5 3857V3911.07L1660 3877.5V3821Z" fill="#298F3A"/>
<path d="M1660 3821L1737.5 3857V3911.07L1660 3877.5V3821Z" fill="#29708F"/>
<path d="M1660 4000L1737.5 4036V4090.07L1660 4056.5V4000Z" fill="#4C57B6"/>
<path d="M1660 4000L1737.5 4036V4090.07L1660 4056.5V4000Z" fill="#4C57B6"/>
<path d="M1660 4000L1737.5 4036V4090.07L1660 4056.5V4000Z" fill="#298F3A"/>
<path d="M1660 4000L1737.5 4036V4090.07L1660 4056.5V4000Z" fill="#29708F"/>
<path d="M1435 3906L1512.5 3942V3996.07L1435 3962.5V3906Z" fill="#4C57B6"/>
<path d="M1435 3906L1512.5 3942V3996.07L1435 3962.5V3906Z" fill="#4C57B6"/>
<path d="M1435 3906L1512.5 3942V3996.07L1435 3962.5V3906Z" fill="#298F3A"/>
<path d="M1435 3906L1512.5 3942V3996.07L1435 3962.5V3906Z" fill="#29708F"/>
<path d="M1497 3736L1574.5 3767.5V3838L1497 3806.5V3736Z" fill="#4C57B6"/>
<path d="M1497 3736L1574.5 3767.5V3838L1497 3806.5V3736Z" fill="#4C57B6"/>
<path d="M1497 3736L1574.5 3767.5V3838L1497 3806.5V3736Z" fill="#21EC42"/>
<path d="M1497 3736L1574.5 3767.5V3838L1497 3806.5V3736Z" fill="#0CEF31"/>
<path d="M1419 3715L1496.5 3751V3805.07L1419 3771.5V3715Z" fill="#4C57B6"/>
<path d="M1419 3715L1496.5 3751V3805.07L1419 3771.5V3715Z" fill="#4C57B6"/>
<path d="M1419 3715L1496.5 3751V3805.07L1419 3771.5V3715Z" fill="#298F3A"/>
<path d="M1419 3715L1496.5 3751V3805.07L1419 3771.5V3715Z" fill="#29708F"/>
<path d="M1524 3763L1601.5 3799V3853.07L1524 3819.5V3763Z" fill="#4C57B6"/>
<path d="M1524 3763L1601.5 3799V3853.07L1524 3819.5V3763Z" fill="#4C57B6"/>
<path d="M1524 3763L1601.5 3799V3853.07L1524 3819.5V3763Z" fill="#298F3A"/>
<path d="M1524 3763L1601.5 3799V3853.07L1524 3819.5V3763Z" fill="#29708F"/>
<path d="M1660 3642L1737.5 3678V3732.07L1660 3698.5V3642Z" fill="#4C57B6"/>
<path d="M1660 3642L1737.5 3678V3732.07L1660 3698.5V3642Z" fill="#4C57B6"/>
<path d="M1660 3642L1737.5 3678V3732.07L1660 3698.5V3642Z" fill="#298F3A"/>
<path d="M1660 3642L1737.5 3678V3732.07L1660 3698.5V3642Z" fill="#29708F"/>
<path d="M1663.5 2990L1362 3124.21L1794 3313.85L2095.5 3178.85L1663.5 2990Z" fill="#237BFF"/>
<path d="M7313 4394.5L6881 4584.08V5176.5L7313 4986.92V4394.5Z" fill="#0045AD"/>
<path d="M6881 4206L6449 4394.85L6881 4584.5L7313 4394.85L6881 4206Z" fill="#1A75FF"/>
<path d="M6881 4583.5L6449 4773.08V5365.5L6881 5175.92V4583.5Z" fill="#0045AD"/>
<path d="M6449 4395L6017 4583.85L6449 4773.5L6881 4583.85L6449 4395Z" fill="#1A75FF"/>
<path d="M6449 4772.5L6017 4962.08V5554.5L6449 5364.92V4772.5Z" fill="#0045AD"/>
<path d="M6017 4584L5585 4772.85L6017 4962.5L6449 4772.85L6017 4584Z" fill="#1A75FF"/>
<path d="M6019 4961.5L5587 5151.08V5743.5L6019 5553.92V4961.5Z" fill="#0045AD"/>
<path d="M5587 4773L5155 4961.85L5587 5151.5L6019 4961.85L5587 4773Z" fill="#1A75FF"/>
<path d="M7281.5 4287L6980 4419.08V4555L7281.5 4422.92V4287Z" fill="#001357"/>
<path d="M6548 4229.5L6980 4419.08V4555L6548 4365.42V4229.5Z" fill="#001357"/>
<path d="M6849.5 4098L7281.5 4286.85L6980 4419.5L6548 4229.85L6849.5 4098Z" fill="#000516"/>
<path d="M7281.5 4112L6980 4244.08V4380L7281.5 4247.92V4112Z" fill="#001357"/>
<path d="M6548 4054.5L6980 4244.08V4380L6548 4190.42V4054.5Z" fill="#001357"/>
<path d="M6849.5 3923L7281.5 4111.85L6980 4244.5L6548 4054.85L6849.5 3923Z" fill="#000516"/>
<path d="M7281.5 3940L6980 4072.08V4208L7281.5 4075.92V3940Z" fill="#001357"/>
<path d="M6548 3882.5L6980 4072.08V4208L6548 4018.42V3882.5Z" fill="#001357"/>
<path d="M6849.5 3751L7281.5 3939.85L6980 4072.5L6548 3882.85L6849.5 3751Z" fill="#000516"/>
<path d="M7281.5 3764L6980 3896.08V4032L7281.5 3899.92V3764Z" fill="#001357"/>
<path d="M6548 3706.5L6980 3896.08V4032L6548 3842.42V3706.5Z" fill="#001357"/>
<path d="M6849.5 3575L7281.5 3763.85L6980 3896.5L6548 3706.85L6849.5 3575Z" fill="#000516"/>
<path d="M7281.5 3593L6980 3725.08V3861L7281.5 3728.92V3593Z" fill="#001357"/>
<path d="M6548 3535.5L6980 3725.08V3861L6548 3671.42V3535.5Z" fill="#001357"/>
<path d="M6849.5 3404L7281.5 3592.85L6980 3725.5L6548 3535.85L6849.5 3404Z" fill="#000516"/>
<path fill-rule="evenodd" clip-rule="evenodd" d="M6874 2831.08L6442 2641.5V3233.92L6874 3423.5L7306 3233.92V2641.5L6874 2831.08Z" fill="#005DE9"/>
<path d="M6874 2453L6442 2641.85L6874 2831.5L7306 2641.85L6874 2453Z" fill="#3C8AFF"/>
<path d="M5353.41 2005.64C5344.59 2009.17 5335.78 2012.69 5326.99 2016.2C5326.36 2011.87 5325.1 2008.31 5323.18 2005.53C5321.27 2002.71 5318.83 2000.63 5315.9 1999.32C5312.96 1998 5309.59 1997.46 5305.76 1997.75C5301.99 1997.96 5297.89 1998.94 5293.46 2000.7C5285.61 2003.82 5278.58 2008.73 5272.37 2015.4C5266.17 2022.01 5261.22 2030.09 5257.52 2039.62C5253.83 2049.1 5251.8 2059.69 5251.43 2071.41C5251.05 2083.31 5252.46 2092.66 5255.64 2099.44C5258.88 2106.13 5263.46 2110.34 5269.38 2112.04C5275.34 2113.68 5282.25 2112.92 5290.09 2109.75C5294.44 2107.99 5298.52 2105.74 5302.33 2103.02C5306.18 2100.22 5309.67 2096.98 5312.77 2093.34C5315.89 2089.68 5318.56 2085.67 5320.73 2081.3C5322.96 2076.92 5324.55 2072.29 5325.48 2067.43C5334.3 2063.93 5343.12 2060.43 5351.94 2056.93C5350.74 2064.66 5348.4 2072.43 5344.91 2080.2C5341.47 2087.97 5337.04 2095.37 5331.61 2102.45C5326.18 2109.49 5319.88 2115.81 5312.72 2121.45C5305.56 2127.04 5297.65 2131.59 5289 2135.09C5276.24 2140.27 5264.95 2141.73 5255.11 2139.47C5245.29 2137.19 5237.69 2131.23 5232.3 2121.59C5226.95 2111.91 5224.54 2098.72 5225.07 2081.98C5225.61 2065.2 5228.95 2049.68 5235.12 2035.44C5241.3 2021.15 5249.47 2008.87 5259.65 1998.58C5269.81 1988.31 5281.2 1980.67 5293.8 1975.67C5301.83 1972.47 5309.28 1970.71 5316.13 1970.39C5322.97 1970.06 5329.03 1971.15 5334.3 1973.69C5339.58 1976.16 5343.86 1980.09 5347.15 1985.46C5350.49 1990.73 5352.58 1997.46 5353.41 2005.64ZM5420.87 2081.82C5410.24 2086.12 5401.1 2087.36 5393.43 2085.56C5385.76 2083.76 5379.91 2079.25 5375.85 2072.04C5371.86 2064.81 5370.02 2055.22 5370.36 2043.25C5370.69 2031.29 5373.11 2019.94 5377.6 2009.25C5382.14 1998.53 5388.36 1989.13 5396.26 1981.06C5404.18 1972.99 5413.42 1966.84 5424.01 1962.62C5434.61 1958.39 5443.71 1957.21 5451.35 1959.05C5458.99 1960.9 5464.81 1965.44 5468.83 1972.7C5472.88 1979.92 5474.78 1989.48 5474.48 2001.37C5474.18 2013.25 5471.77 2024.5 5467.26 2035.13C5462.79 2045.74 5456.6 2055.09 5448.68 2063.19C5440.77 2071.29 5431.5 2077.51 5420.87 2081.82ZM5421.58 2059.96C5427.33 2057.65 5432.19 2054.02 5436.14 2049.11C5440.11 2044.14 5443.11 2038.42 5445.14 2031.95C5447.22 2025.49 5448.35 2018.73 5448.52 2011.73C5448.7 2004.68 5447.91 1998.69 5446.12 1993.75C5444.39 1988.76 5441.63 1985.33 5437.85 1983.47C5434.08 1981.62 5429.32 1981.84 5423.58 1984.13C5417.69 1986.49 5412.75 1990.16 5408.74 1995.14C5404.79 2000.09 5401.76 2005.84 5399.68 2012.39C5397.63 2018.87 5396.52 2025.65 5396.32 2032.73C5396.14 2039.75 5396.9 2045.75 5398.63 2050.71C5400.42 2055.65 5403.2 2059.04 5406.98 2060.89C5410.81 2062.66 5415.67 2062.36 5421.58 2059.96ZM5522.04 1972.01C5521.52 1994.41 5520.99 2016.82 5520.47 2039.22C5511.92 2042.68 5503.38 2046.15 5494.84 2049.61C5495.76 2011.32 5496.68 1973.02 5497.61 1934.72C5505.75 1931.46 5513.89 1928.22 5522.03 1924.97C5521.88 1931.46 5521.72 1937.96 5521.57 1944.46C5521.99 1944.29 5522.41 1944.12 5522.85 1943.95C5525.49 1936.53 5529.58 1929.84 5535.13 1923.87C5540.72 1917.89 5547.56 1913.29 5555.66 1910.05C5563.13 1907.07 5569.62 1906.15 5575.08 1907.32C5580.61 1908.45 5584.83 1911.61 5587.76 1916.78C5590.73 1921.92 5592.09 1929.07 5591.85 1938.21C5591.33 1962.44 5590.81 1986.67 5590.3 2010.91C5581.75 2014.38 5573.21 2017.84 5564.67 2021.3C5565.16 1998.41 5565.67 1975.53 5566.18 1952.65C5566.35 1945.01 5564.6 1939.77 5560.92 1936.97C5557.3 1934.14 5552.2 1934.05 5545.61 1936.69C5541.13 1938.48 5537.13 1941.11 5533.6 1944.6C5530.11 1948.02 5527.34 1952.07 5525.27 1956.74C5523.25 1961.39 5522.18 1966.49 5522.04 1972.01ZM5672.8 1864.73C5672.67 1871.63 5672.53 1878.54 5672.41 1885.45C5651.63 1893.76 5630.86 1902.09 5610.07 1910.42C5610.21 1903.49 5610.35 1896.56 5610.5 1889.61C5631.27 1881.32 5652.04 1873.02 5672.8 1864.73ZM5626.45 1856.18C5634.95 1852.8 5643.45 1849.41 5651.96 1846.02C5651.26 1881.61 5650.57 1917.22 5649.88 1952.82C5649.8 1956.43 5650.26 1958.97 5651.26 1960.48C5652.32 1961.92 5653.7 1962.63 5655.43 1962.62C5657.16 1962.6 5659.09 1962.17 5661.22 1961.31C5662.83 1960.66 5664.28 1959.95 5665.61 1959.16C5666.97 1958.36 5668.02 1957.72 5668.72 1957.24C5670.03 1963.63 5671.34 1970.03 5672.65 1976.41C5671.27 1977.46 5669.31 1978.79 5666.75 1980.42C5664.24 1982.04 5661.16 1983.62 5657.53 1985.19C5651.11 1988 5645.34 1989.33 5640.25 1989.19C5635.14 1989.01 5631.13 1987.16 5628.2 1983.63C5625.33 1980.08 5623.99 1974.74 5624.18 1967.6C5624.93 1930.46 5625.69 1893.32 5626.45 1856.18ZM5723.32 1959.24C5716.43 1962.03 5710.24 1963.28 5704.77 1962.95C5699.34 1962.56 5695.07 1960.49 5691.96 1956.7C5688.89 1952.92 5687.44 1947.3 5687.58 1939.86C5687.69 1933.46 5688.91 1927.71 5691.26 1922.61C5693.59 1917.52 5696.73 1912.93 5700.69 1908.85C5704.65 1904.76 5709.08 1901.09 5714 1897.86C5718.97 1894.53 5724.09 1891.51 5729.38 1888.81C5735.74 1885.56 5740.91 1882.87 5744.88 1880.74C5748.83 1878.57 5751.72 1876.53 5753.52 1874.63C5755.39 1872.67 5756.33 1870.41 5756.37 1867.87C5756.38 1867.71 5756.38 1867.56 5756.39 1867.42C5756.48 1861.89 5754.97 1858.22 5751.87 1856.45C5748.77 1854.66 5744.25 1854.97 5738.33 1857.34C5732.07 1859.85 5727.08 1863.25 5723.36 1867.59C5719.69 1871.89 5717.19 1876.23 5715.84 1880.63C5707.91 1882.63 5699.98 1884.65 5692.06 1886.66C5694.06 1879.02 5697.27 1872.01 5701.68 1865.65C5706.09 1859.24 5711.45 1853.64 5717.74 1848.82C5724.04 1843.96 5730.96 1840.02 5738.53 1836.99C5743.75 1834.9 5748.93 1833.48 5754.08 1832.68C5759.23 1831.89 5763.93 1832.11 5768.14 1833.34C5772.37 1834.52 5775.75 1837.08 5778.26 1841.04C5780.82 1844.98 5782.03 1850.7 5781.92 1858.18C5781.52 1883.34 5781.13 1908.5 5780.75 1933.68C5772.54 1937.01 5764.33 1940.33 5756.13 1943.66C5756.21 1938.48 5756.29 1933.31 5756.38 1928.15C5756.09 1928.26 5755.8 1928.37 5755.52 1928.49C5753.92 1932.25 5751.68 1936.08 5748.81 1939.98C5745.97 1943.81 5742.43 1947.41 5738.15 1950.8C5733.93 1954.12 5728.98 1956.95 5723.32 1959.24ZM5730.31 1936.95C5735.44 1934.87 5739.92 1932 5743.73 1928.36C5747.54 1924.68 5750.48 1920.66 5752.57 1916.3C5754.7 1911.94 5755.79 1907.68 5755.86 1903.51C5755.93 1899.06 5756 1894.63 5756.08 1890.2C5755.27 1891.2 5753.89 1892.39 5751.96 1893.76C5750.06 1895.1 5747.94 1896.47 5745.57 1897.86C5743.21 1899.25 5740.87 1900.59 5738.56 1901.86C5736.24 1903.13 5734.24 1904.24 5732.54 1905.16C5728.71 1907.24 5725.27 1909.51 5722.24 1911.95C5719.2 1914.4 5716.79 1917.08 5715.01 1920C5713.23 1922.87 5712.31 1926.01 5712.25 1929.46C5712.16 1934.37 5713.82 1937.39 5717.22 1938.5C5720.61 1939.62 5724.98 1939.11 5730.31 1936.95ZM5853.86 1906.19C5843.01 1910.59 5833.73 1911.91 5826.02 1910.13C5818.36 1908.33 5812.5 1903.94 5808.44 1896.94C5804.42 1889.86 5802.49 1880.63 5802.66 1869.24C5802.83 1857.8 5805.1 1846.85 5809.46 1836.4C5813.83 1825.91 5819.88 1816.69 5827.67 1808.72C5835.49 1800.69 5844.68 1794.56 5855.26 1790.32C5864.05 1786.82 5871.8 1785.39 5878.52 1786.03C5885.29 1786.62 5890.66 1789.13 5894.63 1793.59C5898.6 1797.99 5900.81 1804.12 5901.29 1811.95C5893.14 1815.22 5885.01 1818.49 5876.88 1821.76C5875.96 1816.76 5873.66 1813.2 5870 1811.09C5866.37 1808.92 5861.48 1809.06 5855.33 1811.53C5850.11 1813.62 5845.51 1816.92 5841.52 1821.43C5837.53 1825.9 5834.39 1831.27 5832.11 1837.58C5829.86 1843.87 5828.69 1850.8 5828.58 1858.36C5828.48 1866.02 5829.47 1872.18 5831.56 1876.81C5833.65 1881.4 5836.63 1884.38 5840.5 1885.78C5844.41 1887.11 5849.03 1886.69 5854.36 1884.53C5858.13 1883 5861.51 1880.9 5864.5 1878.25C5867.53 1875.53 5870.08 1872.34 5872.15 1868.69C5874.2 1865.05 5875.63 1861.06 5876.44 1856.72C5884.58 1853.43 5892.72 1850.14 5900.87 1846.84C5900.18 1855.01 5897.83 1862.94 5893.84 1870.65C5889.85 1878.32 5884.47 1885.23 5877.68 1891.43C5870.9 1897.57 5862.97 1902.49 5853.86 1906.19ZM5976.73 1743.18C5976.66 1749.96 5976.6 1756.72 5976.54 1763.49C5955.78 1771.81 5935.04 1780.14 5914.28 1788.47C5914.36 1781.68 5914.43 1774.88 5914.52 1768.08C5935.25 1759.78 5955.99 1751.48 5976.73 1743.18ZM5930.17 1735.17C5938.67 1731.78 5947.16 1728.4 5955.66 1725.02C5955.29 1759.91 5954.94 1794.81 5954.6 1829.7C5954.56 1833.24 5955.05 1835.74 5956.06 1837.21C5957.13 1838.6 5958.53 1839.29 5960.26 1839.27C5961.99 1839.23 5963.93 1838.79 5966.05 1837.93C5967.66 1837.29 5969.11 1836.57 5970.43 1835.8C5971.8 1834.99 5972.83 1834.36 5973.54 1833.88C5974.92 1840.15 5976.29 1846.4 5977.66 1852.66C5976.29 1853.7 5974.33 1855.02 5971.78 1856.63C5969.27 1858.23 5966.2 1859.82 5962.58 1861.39C5956.16 1864.18 5950.4 1865.54 5945.28 1865.45C5940.18 1865.3 5936.13 1863.52 5933.17 1860.08C5930.26 1856.62 5928.85 1851.4 5928.98 1844.39C5929.37 1807.99 5929.78 1771.59 5930.17 1735.17ZM6139.46 1641.4C6148.16 1637.94 6156.85 1634.47 6165.55 1631C6165.41 1662.94 6165.29 1694.87 6165.18 1726.78C6165.14 1737.29 6162.66 1747.51 6157.74 1757.46C6152.86 1767.4 6146.02 1776.41 6137.19 1784.49C6128.35 1792.53 6118.05 1798.94 6106.29 1803.71C6094.45 1808.54 6084.15 1810.5 6075.37 1809.58C6066.59 1808.65 6059.81 1805.15 6055.02 1799.08C6050.22 1793.02 6047.87 1784.69 6047.95 1774.1C6048.17 1741.93 6048.41 1709.75 6048.66 1677.56C6057.35 1674.1 6066.05 1670.64 6074.75 1667.18C6074.53 1698.57 6074.32 1729.95 6074.13 1761.31C6074.08 1767.46 6075.37 1772.4 6077.98 1776.13C6080.64 1779.85 6084.37 1782.09 6089.21 1782.85C6094.03 1783.59 6099.77 1782.6 6106.41 1779.91C6113.05 1777.23 6118.8 1773.54 6123.65 1768.91C6128.56 1764.2 6132.34 1758.93 6135 1753.07C6137.65 1747.23 6139 1741.24 6139.02 1735.13C6139.16 1703.89 6139.3 1672.65 6139.46 1641.4ZM6278.1 1651.38C6270.34 1655.35 6262.59 1659.31 6254.85 1663.29C6254.18 1661.18 6253.02 1659.42 6251.4 1658C6249.79 1656.55 6247.65 1655.74 6244.91 1655.55C6242.2 1655.36 6238.87 1656.06 6234.92 1657.64C6229.61 1659.77 6225.15 1662.73 6221.52 1666.51C6217.96 1670.27 6216.2 1673.99 6216.22 1677.69C6216.18 1680.87 6217.33 1683.01 6219.67 1684.06C6222.06 1685.09 6226.02 1685.13 6231.51 1684.19C6237.66 1683.05 6243.81 1681.9 6249.97 1680.75C6260.2 1678.84 6267.83 1679.3 6272.81 1682.13C6277.82 1684.95 6280.38 1690.24 6280.43 1698.03C6280.38 1704.92 6278.37 1711.79 6274.42 1718.65C6270.5 1725.45 6265.07 1731.73 6258.11 1737.5C6251.14 1743.28 6243.13 1748.01 6234.09 1751.69C6220.82 1757.08 6210.12 1758.62 6202.04 1756.29C6193.96 1753.9 6189.16 1747.96 6187.63 1738.49C6195.93 1734.32 6204.24 1730.14 6212.55 1725.97C6213.67 1730.47 6216.06 1733.22 6219.73 1734.26C6223.39 1735.29 6228.17 1734.62 6234.06 1732.23C6240.11 1729.77 6245 1726.52 6248.67 1722.52C6252.38 1718.51 6254.25 1714.65 6254.25 1710.95C6254.25 1707.82 6253.06 1705.71 6250.66 1704.65C6248.31 1703.56 6244.65 1703.47 6239.66 1704.4C6233.5 1705.58 6227.34 1706.77 6221.19 1707.94C6210.8 1709.97 6203.11 1709.38 6198.14 1706.19C6193.18 1702.98 6190.73 1697.34 6190.79 1689.34C6190.76 1682.6 6192.58 1676.01 6196.26 1669.6C6199.98 1663.11 6205.14 1657.19 6211.71 1651.85C6218.33 1646.45 6225.97 1642.01 6234.59 1638.56C6247.27 1633.48 6257.22 1632.22 6264.5 1634.74C6271.83 1637.26 6276.35 1642.8 6278.1 1651.38Z" fill="white"/>
<path d="M6575 3610L6706.5 3667.5V3692.92L6575 3635.42V3610Z" fill="white"/>
<path d="M6575 3783L6706.5 3840.5V3865.92L6575 3808.42V3783Z" fill="white"/>
<path d="M6575 3962L6706.5 4019.5V4044.92L6575 3987.42V3962Z" fill="white"/>
<path d="M6575 4134L6706.5 4191.5V4216.92L6575 4159.42V4134Z" fill="white"/>
<path d="M6575 4304L6706.5 4361.5V4386.92L6575 4329.42V4304Z" fill="white"/>
</svg>
